<?xml version="1.0" encoding="utf-8"?>
<!-- Generator: Adobe Illustrator 25.0.0, SVG Export Plug-In . SVG Version: 6.00 Build 0)  -->
<svg version="1.1" id="Capa_1" xmlns="http://www.w3.org/2000/svg" xmlns:xlink="http://www.w3.org/1999/xlink" x="0px" y="0px"
	 viewBox="0 0 500 500" style="enable-background:new 0 0 500 500;" xml:space="preserve">
<style type="text/css">
	.st0{fill:#F5F5F5;}
</style>
<g>
	<g>
		<g>
			<path class="st0" d="M205.7,237.2c10.4-5.2,18.2-11,23.6-17.3c9.6-11.3,14.3-26.3,14.3-44.9c0-18.1-4.7-33.6-14.2-46.5
				c-15.7-21.1-42.4-32-80.1-32.5H0v304.8h139.2c15.7,0,30.2-1.3,43.7-4.1c13.4-2.8,25.1-7.9,34.9-15.3c8.8-6.5,16.1-14.5,21.9-24
				c9.2-14.3,13.8-30.5,13.8-48.6c0-17.5-4-32.4-12-44.7C233.3,251.9,221.5,242.9,205.7,237.2z M61.6,148.9h67.3
				c14.8,0,27,1.6,36.5,4.8c11.1,4.6,16.6,13.9,16.6,28.2c0,12.8-4.2,21.7-12.6,26.8c-8.4,5-19.3,7.6-32.7,7.6H61.6V148.9z
				 M168,342.5c-7.4,3.6-17.9,5.4-31.3,5.4h-75v-81.3h76.1c13.3,0.1,23.6,1.8,30.9,5.1c13.1,5.9,19.7,16.8,19.7,32.7
				C188.3,323.2,181.5,335.8,168,342.5z"/>
			<rect x="319.5" y="110.2" class="st0" width="132.4" height="37.9"/>
			<path class="st0" d="M497.9,259.9c-2.8-17.7-8.8-33.2-18.3-46.6c-10.3-15.2-23.5-26.3-39.4-33.3c-15.9-7.1-33.8-10.6-53.8-10.6
				c-33.5,0-60.7,10.5-81.7,31.3s-31.5,50.8-31.5,89.9c0,41.7,11.6,71.8,34.9,90.2c23.2,18.5,50,27.7,80.5,27.7
				c36.8,0,65.5-11,86-32.8c13.1-13.8,20.5-27.4,22.1-40.8h-61c-3.5,6.6-7.6,11.8-12.3,15.5c-8.5,6.9-19.6,10.3-33.1,10.3
				c-12.9,0-23.8-2.8-33-8.5c-15.1-9.1-22.9-24.9-23.9-47.5h166.5C500.2,285.2,499.6,270.2,497.9,259.9z M335,265.8
				c2.2-14.7,7.5-26.3,15.9-34.9c8.4-8.6,20.4-12.9,35.7-12.9c14.1,0,25.9,4,35.5,12.1c9.5,8.2,14.8,20,15.9,35.7L335,265.8
				L335,265.8z"/>
		</g>
	</g>
</g>
</svg>
