<?xml version="1.0" encoding="utf-8"?>
<!-- Generator: Adobe Illustrator 25.0.0, SVG Export Plug-In . SVG Version: 6.00 Build 0)  -->
<svg version="1.1" id="Capa_1" xmlns="http://www.w3.org/2000/svg" xmlns:xlink="http://www.w3.org/1999/xlink" x="0px" y="0px"
	 viewBox="0 0 500 500" style="enable-background:new 0 0 500 500;" xml:space="preserve">
<style type="text/css">
	.st0{fill:#F5F5F5;}
</style>
<g>
	<g>
		<g>
			<path class="st0" d="M217.2,241.1c7.7-3.9,13.5-8.1,17.5-12.8c7.1-8.4,10.6-19.5,10.6-33.2c0-13.4-3.5-24.9-10.5-34.4
				c-11.6-15.6-31.4-23.7-59.3-24.1H64.9v225.7H168c11.6,0,22.4-1,32.4-3c9.9-2.1,18.6-5.8,25.8-11.3c6.5-4.8,11.9-10.7,16.2-17.8
				c6.8-10.6,10.2-22.6,10.2-36c0-13-3-24-8.9-33.1C237.6,252,228.9,245.3,217.2,241.1z M110.5,175.7h49.8c11,0,20,1.2,27,3.6
				c8.2,3.4,12.3,10.3,12.3,20.9c0,9.5-3.1,16.1-9.3,19.8c-6.2,3.7-14.3,5.6-24.2,5.6h-55.6V175.7z M189.3,319.1
				c-5.5,2.7-13.3,4-23.2,4h-55.5v-60.2h56.3c9.8,0.1,17.5,1.3,22.9,3.8c9.7,4.4,14.6,12.4,14.6,24.2
				C204.3,304.8,199.3,314.1,189.3,319.1z"/>
			<rect x="301.5" y="147.1" class="st0" width="98" height="28.1"/>
			<path class="st0" d="M433.5,257.9c-2.1-13.1-6.5-24.6-13.5-34.5c-7.6-11.3-17.4-19.5-29.2-24.7c-11.8-5.3-25-7.8-39.8-7.8
				c-24.8,0-44.9,7.8-60.5,23.2c-15.5,15.4-23.3,37.6-23.3,66.6c0,30.9,8.6,53.2,25.8,66.8c17.2,13.7,37,20.5,59.6,20.5
				c27.2,0,48.5-8.1,63.7-24.3c9.7-10.2,15.2-20.3,16.4-30.2h-45.2c-2.6,4.9-5.6,8.7-9.1,11.5c-6.3,5.1-14.5,7.6-24.5,7.6
				c-9.6,0-17.6-2.1-24.4-6.3c-11.2-6.7-17-18.4-17.7-35.2H435C435.2,276.6,434.8,265.5,433.5,257.9z M312.9,262.3
				c1.6-10.9,5.6-19.5,11.8-25.8s15.1-9.6,26.4-9.6c10.4,0,19.2,3,26.3,9c7,6.1,11,14.8,11.8,26.4L312.9,262.3L312.9,262.3z"/>
		</g>
	</g>
</g>
</svg>
