<?xml version="1.0" encoding="utf-8"?>
<!-- Generator: Adobe Illustrator 25.0.0, SVG Export Plug-In . SVG Version: 6.00 Build 0)  -->
<svg version="1.1" id="Capa_1" xmlns="http://www.w3.org/2000/svg" xmlns:xlink="http://www.w3.org/1999/xlink" x="0px" y="0px"
	 viewBox="0 0 500 500" style="enable-background:new 0 0 500 500;" xml:space="preserve">
<style type="text/css">
	.st0{fill:#F5F5F5;}
</style>
<g>
	<g>
		<path class="st0" d="M250,52.2c-108.6,0-196.8,88.5-196.8,197.6c0,87.3,56.4,161.3,134.6,187.6c9.8,1.8,13.5-4.2,13.5-9.5
			c0-4.7-0.2-17.2-0.2-33.6c-54.7,12-66.3-26.5-66.3-26.5c-8.9-22.8-21.9-28.9-21.9-28.9c-17.9-12.2,1.3-12,1.3-12
			c19.8,1.4,30.2,20.4,30.2,20.4c17.5,30.2,46.1,21.5,57.3,16.4c1.7-12.7,6.8-21.5,12.5-26.4c-43.7-4.9-89.6-22-89.6-97.6
			c0-21.6,7.7-39.2,20.2-53.1c-2-4.9-8.8-25.2,1.9-52.2c0,0,16.6-5.4,54.2,20.2c15.7-4.4,32.5-6.6,49.2-6.7
			c16.7,0.1,33.5,2.3,49.2,6.7c37.6-25.5,54.1-20.2,54.1-20.2c10.7,27.3,4,47.3,1.9,52.2c12.6,13.9,20.2,31.5,20.2,53.1
			c0,75.9-46,92.6-89.8,97.4c7.1,6.2,13.4,18.2,13.4,36.6c0,26.4-0.2,47.7-0.2,54.2c0,5.3,3.6,11.4,13.6,9.5
			C390.7,411.2,447,337,447,249.8C446.8,140.7,358.7,52.2,250,52.2z"/>
	</g>
</g>
</svg>
