<?xml version="1.0" encoding="utf-8"?>
<!-- Generator: Adobe Illustrator 25.0.0, SVG Export Plug-In . SVG Version: 6.00 Build 0)  -->
<svg version="1.1" id="Capa_1" xmlns="http://www.w3.org/2000/svg" xmlns:xlink="http://www.w3.org/1999/xlink" x="0px" y="0px"
	 viewBox="0 0 500 500" style="enable-background:new 0 0 500 500;" xml:space="preserve">
<style type="text/css">
	.st0{fill:#F5F5F5;}
</style>
<g>
	<g>
		<path class="st0" d="M250,50C137.3,50,45.8,141.8,45.8,255c0,90.6,58.5,167.4,139.7,194.6c10.2,1.9,14-4.4,14-9.9
			c0-4.9-0.2-17.8-0.2-34.9c-56.8,12.4-68.8-27.5-68.8-27.5c-9.2-23.7-22.7-30-22.7-30c-18.6-12.7,1.3-12.4,1.3-12.4
			c20.5,1.5,31.3,21.2,31.3,21.2c18.2,31.3,47.8,22.3,59.5,17c1.8-13.2,7.1-22.3,13-27.4c-45.3-5.1-93-22.8-93-101.3
			c0-22.4,8-40.7,21-55.1c-2.1-5.1-9.1-26.1,2-54.2c0,0,17.2-5.6,56.2,21c16.3-4.6,33.7-6.8,51.1-6.9c17.3,0.1,34.8,2.4,51.1,6.9
			c39-26.5,56.1-21,56.1-21c11.1,28.3,4.2,49.1,2,54.2c13.1,14.4,21,32.7,21,55.1c0,78.8-47.7,96.1-93.2,101.1
			c7.4,6.4,13.9,18.9,13.9,38c0,27.4-0.2,49.5-0.2,56.2c0,5.5,3.7,11.8,14.1,9.9c81-27.2,139.4-104.1,139.4-194.6
			C454.2,141.8,362.8,50,250,50z"/>
	</g>
</g>
</svg>
