<?xml version="1.0" encoding="utf-8"?>
<!-- Generator: Adobe Illustrator 25.0.0, SVG Export Plug-In . SVG Version: 6.00 Build 0)  -->
<svg version="1.1" id="Capa_1" xmlns="http://www.w3.org/2000/svg" xmlns:xlink="http://www.w3.org/1999/xlink" x="0px" y="0px"
	 viewBox="0 0 500 500" style="enable-background:new 0 0 500 500;" xml:space="preserve">
<style type="text/css">
	.st0{fill:#F5F5F5;}
</style>
<g>
	<g>
		<g>
			<rect x="75" y="184.3" class="st0" width="78.3" height="240.7"/>
		</g>
	</g>
	<g>
		<g>
			<path class="st0" d="M366.5,187.2c-0.8-0.3-1.6-0.6-2.5-0.8c-1-0.2-2.1-0.4-3.1-0.6c-4.1-0.8-8.7-1.4-14.1-1.4
				c-45.6,0-74.5,33.2-84.1,46v-46h-78.3V425h78.3V293.7c0,0,59.1-82.4,84.1-21.8c0,54,0,153.2,0,153.2H425V262.6
				C425,226.2,400.1,195.9,366.5,187.2z"/>
		</g>
	</g>
	<g>
		<g>
			<circle class="st0" cx="113.3" cy="113.3" r="38.3"/>
		</g>
	</g>
</g>
</svg>
