<?xml version="1.0" encoding="utf-8"?>
<!-- Generator: Adobe Illustrator 25.0.0, SVG Export Plug-In . SVG Version: 6.00 Build 0)  -->
<svg version="1.1" id="Capa_1" xmlns="http://www.w3.org/2000/svg" xmlns:xlink="http://www.w3.org/1999/xlink" x="0px" y="0px"
	 viewBox="0 0 500 500" style="enable-background:new 0 0 500 500;" xml:space="preserve">
<style type="text/css">
	.st0{fill:#F5F5F5;}
</style>
<g>
	<g>
		<g>
			<rect x="95" y="191.8" class="st0" width="69.4" height="213.2"/>
		</g>
	</g>
	<g>
		<g>
			<path class="st0" d="M353.2,194.4c-0.7-0.3-1.4-0.5-2.2-0.7c-0.9-0.2-1.9-0.4-2.7-0.5c-3.6-0.7-7.7-1.2-12.5-1.2
				c-40.4,0-66,29.4-74.5,40.7v-40.7h-69.4V405h69.4V288.7c0,0,52.3-73,74.5-19.3c0,47.8,0,135.7,0,135.7H405V261.2
				C405,228.9,383,202.1,353.2,194.4z"/>
		</g>
	</g>
	<g>
		<g>
			<circle class="st0" cx="128.9" cy="128.9" r="33.9"/>
		</g>
	</g>
</g>
</svg>
