<?xml version="1.0" encoding="utf-8"?>
<!-- Generator: Adobe Illustrator 25.0.0, SVG Export Plug-In . SVG Version: 6.00 Build 0)  -->
<svg version="1.1" id="Capa_1" xmlns="http://www.w3.org/2000/svg" xmlns:xlink="http://www.w3.org/1999/xlink" x="0px" y="0px"
	 viewBox="0 0 500 500" style="enable-background:new 0 0 500 500;" xml:space="preserve">
<style type="text/css">
	.st0{display:none;fill:#141423;}
	.st1{fill:#F5F5F5;}
</style>
<circle class="st0" cx="250" cy="250" r="250"/>
<path class="st1" d="M90.8,242.7L307,153.6c21.3-9.2,93.8-38.9,93.8-38.9s33.4-13,30.6,18.5c-0.9,13-8.3,58.4-15.8,107.6
	l-23.2,145.6c0,0-1.8,21.3-17.7,25c-15.8,3.7-41.7-13-46.4-16.7c-3.7-2.8-69.6-44.6-93.8-65c-6.6-5.5-13.9-16.7,0.9-29.7
	c33.4-30.6,73.3-68.7,97.5-92.9c11.2-11.2,22.2-37.1-24.1-5.5l-130.9,88.1c0,0-14.9,9.2-42.6,0.9s-60.4-19.5-60.4-19.5
	S52.7,257.6,90.8,242.7L90.8,242.7z"/>
</svg>
