<?xml version="1.0" encoding="utf-8"?>
<!-- Generator: Adobe Illustrator 25.0.0, SVG Export Plug-In . SVG Version: 6.00 Build 0)  -->
<svg version="1.1" id="Capa_1" xmlns="http://www.w3.org/2000/svg" xmlns:xlink="http://www.w3.org/1999/xlink" x="0px" y="0px"
	 viewBox="0 0 500 500" style="enable-background:new 0 0 500 500;" xml:space="preserve">
<style type="text/css">
	.st0{fill:#F5F5F5;}
</style>
<g>
	<g>
		<path class="st0" d="M434.6,135.5c-13.7,6.1-28.4,10-43.6,12c15.7-9.4,27.7-24.1,33.3-41.9c-14.6,8.7-30.8,14.9-48,18.3
			C362.4,109.2,342.6,100,321,100c-41.9,0-75.6,34-75.6,75.7c0,6,0.5,11.7,1.8,17.3c-62.9-3.1-118.6-33.2-156.1-79.2
			c-6.5,11.3-10.3,24.3-10.3,38.3c0,26.2,13.5,49.5,33.6,62.9c-12.2-0.2-24.1-3.8-34.2-9.3c0,0.2,0,0.5,0,0.8
			c0,36.8,26.2,67.4,60.6,74.4c-6.1,1.7-12.9,2.5-19.9,2.5c-4.9,0-9.7-0.3-14.3-1.3c9.8,30,37.7,52,70.8,52.7
			c-25.8,20.2-58.5,32.3-93.9,32.3c-6.2,0-12.2-0.3-18.1-1c33.5,21.6,73.3,34,116.2,34C320.8,400,397,284.6,397,184.6
			c0-3.3-0.1-6.6-0.3-9.7C411.7,164.2,424.4,150.8,434.6,135.5z"/>
	</g>
</g>
</svg>
