<?xml version="1.0" encoding="utf-8"?>
<!-- Generator: Adobe Illustrator 25.0.0, SVG Export Plug-In . SVG Version: 6.00 Build 0)  -->
<svg version="1.1" id="Capa_1" xmlns="http://www.w3.org/2000/svg" xmlns:xlink="http://www.w3.org/1999/xlink" x="0px" y="0px"
	 viewBox="0 0 500 500" style="enable-background:new 0 0 500 500;" xml:space="preserve">
<style type="text/css">
	.st0{fill:#F5F5F5;}
</style>
<g>
	<g>
		<path class="st0" d="M414.6,147.9c-12.2,5.4-25.3,8.9-38.9,10.7c14-8.4,24.7-21.5,29.7-37.4c-13,7.8-27.5,13.3-42.8,16.3
			c-12.4-13.1-30-21.3-49.3-21.3c-37.4,0-67.4,30.3-67.4,67.5c0,5.3,0.4,10.4,1.6,15.4c-56.1-2.8-105.7-29.6-139.2-70.6
			c-5.8,10.1-9.2,21.7-9.2,34.1c0,23.4,12,44.1,30,56.1c-10.9-0.2-21.5-3.4-30.5-8.3c0,0.2,0,0.4,0,0.7c0,32.8,23.4,60.1,54,66.3
			c-5.4,1.5-11.5,2.2-17.7,2.2c-4.4,0-8.6-0.3-12.7-1.2c8.7,26.7,33.6,46.4,63.1,47c-23,18-52.2,28.8-83.7,28.8
			c-5.5,0-10.9-0.3-16.1-0.9c29.9,19.3,65.3,30.3,103.6,30.3c124.1-0.1,192-103,192-192.1c0-2.9-0.1-5.9-0.3-8.6
			C394.2,173.5,405.5,161.6,414.6,147.9z"/>
	</g>
</g>
</svg>
