<svg version="1.1" xmlns="http://www.w3.org/2000/svg" xmlns:xlink="http://www.w3.org/1999/xlink" x="0px" y="0px" width="1440px"
	 height="800px" viewBox="0 0 1440 800" style="overflow:visible;enable-background:new 0 0 1440 800;" xml:space="preserve">
<style type="text/css">
	.st0{fill:#00ADB5;}
</style>
<defs>
</defs>
<g>
	<path class="st0" d="M0,0c80,4.8,142.2,52.2,191.7,115.2s78.9,139.2,103.6,215.5s45.4,154.2,80.5,226.3
		c12.1,25,26.4,49.7,47.6,67.6c21.2,18,50.6,28.2,77.3,20.7c53.2-15,69.4-87.6,119.5-111.2c34.5-16.2,76.2-4.3,108.3,16.4
		c32,20.7,58.2,49.3,89.7,70.9c31.5,21.5,72,35.6,107.7,22.2c58.4-22,94.7-154.7,157.1-155.5c47.3-0.6,85,49.3,132.3,48.5
		c66.2-1.1,111.3-50.8,138.5-100s21.8-60.9,35.1-115.6c13.3-54.7,1-145.2,51.2-170.7V800H0V0z"/>
</g>
</svg>
